<svg id="b2c4da6b-e2d3-4321-896c-4aa02f15b711" data-name="Layer 1" xmlns="http://www.w3.org/2000/svg" viewBox="0 0 447.81332 175.20261"><path d="M302.84058,144.276H314.2551c3.6804,0,5.57832.562,7.40117,2.16735a6.69777,6.69777,0,0,1,2.46023,5.36676,6.96906,6.96906,0,0,1-2.02848,5.05963,5.749,5.749,0,0,1-2.77033,1.55905c4.03086,1.2083,5.9724,3.63382,5.9724,7.56912a7.96843,7.96843,0,0,1-7.87625,8.311c-.95044.04036-2.211.084-3.85133.084H302.84058Zm5.9724,5.14924V156.348h4.83648a5.02153,5.02153,0,0,0,2.59643-.38813,3.91068,3.91068,0,0,0,1.55905-3.11513,3.45145,3.45145,0,0,0-1.727-3.02848,6.12157,6.12157,0,0,0-2.51543-.3911Zm.08693,11.89553v8.13707h5.1813a4.7602,4.7602,0,0,0,2.81394-.68961,4.53278,4.53278,0,0,0,1.559-3.50058,3.80529,3.80529,0,0,0-2.2083-3.68041,6.08575,6.08575,0,0,0-2.33857-.26647Z" transform="translate(-2.05424 -0.01008)" fill="#fff"/><path d="M356.282,152.75487v2.124a8.26743,8.26743,0,0,1,2.90356-2.59643,5.15936,5.15936,0,0,1,1.90682-.34481,4.51,4.51,0,0,1,2.16468.47507l-1.21721,4.89169a3.24154,3.24154,0,0,0-1.69228-.43472,4.63561,4.63561,0,0,0-3.54984,1.86053v15.66258h-5.79257V152.75487Z" transform="translate(-2.05424 -0.01008)" fill="#fff"/><path d="M380.78582,168.50736l2.243,3.45994a12.67,12.67,0,0,1-8.34864,3.0715c-6.35489,0-10.46971-4.49732-10.46971-11.46348,0-3.98159.82581-6.62164,2.77031-8.78633a8.70619,8.70619,0,0,1,6.96913-2.97892,9.07632,9.07632,0,0,1,6.40414,2.3356c2.02553,2.07477,2.93827,5.05963,2.93827,9.69048v1.33858h-12.811v.17388c0,3.41958,1.68931,5.36676,4.67685,5.36676A8.66612,8.66612,0,0,0,380.78582,168.50736Zm-10.21749-7.57209h6.7083v-.2638a5.68971,5.68971,0,0,0-.69258-3.32373,2.79994,2.79994,0,0,0-2.55014-1.30089c-2.208,0-3.46558,1.73264-3.46558,4.79851Z" transform="translate(-2.05424 -0.01008)" fill="#fff"/><path d="M399.57807,174.38124v-1.54451a9.79175,9.79175,0,0,1-1.33857,1.16765,7.68979,7.68979,0,0,1-4.45994,1.20831c-4.935,0-7.60948-2.50356-7.60948-6.91987,0-5.19287,3.58753-7.62135,10.63767-7.62135.43175,0,.69258,0,1.29554.04659V159.808c0-2.46023-.4724-3.286-2.59079-3.286-1.85757,0-4.02225.91008-6.40414,2.50949l-2.4632-4.15252a16.43228,16.43228,0,0,1,3.58456-1.81691,15.008,15.008,0,0,1,6.0623-1.29822c3.7178,0,6.27388,1.3822,7.13738,3.84836a11.24758,11.24758,0,0,1,.39406,3.9816l-.13056,7.4445v7.35458Zm-1.55608-9.68159h-.26647c-4.01364,0-5.3988.73887-5.3988,3.376a2.6274,2.6274,0,0,0,2.55014,2.90059,4.20137,4.20137,0,0,0,3.02818-1.5184Z" transform="translate(-2.05424 -0.01008)" fill="#fff"/><path d="M420.96409,174.38124v-1.54451a8.28584,8.28584,0,0,1-5.8451,2.1181c-3.11513,0-5.79257-1.46914-6.53144-3.5902a13.31949,13.31949,0,0,1-.48131-4.41335V152.75487h5.7175v13.159c0,1.98783.13026,3.02819.47537,3.63383a2.34115,2.34115,0,0,0,2.03708,1.03738,4.27378,4.27378,0,0,0,3.58457-2.12433v-15.7059h5.54064v21.62637Z" transform="translate(-2.05424 -0.01008)" fill="#fff"/><path d="M69.48912,51.16932a30.3361,30.3361,0,0,0-17.5694-5.76082c-7.43856,0-14.72965,3.39762-18.67652,8.86289-4.27418,5.9-6.181,14.46288-6.181,26.42666,0,14.02252,1.2635,21.8495,4.5902,27.45958,4.43649,7.52847,11.713,11.5157,21.21183,11.5157a29.91123,29.91123,0,0,0,16.62489-5.02462c.63175-.44065,1.42848-1.02878,2.21958-1.62284l8.88188,13.9154c-8.35725,5.99554-17.38988,8.676-29.30558,8.676-15.19611,0-26.91775-4.57863-35.92693-14.17623-8.86438-9.2988-13.30383-21.7044-13.30383-36.76135,0-12.8433,2.37032-23.03052,7.44153-31.8845C18.04145,37.88,33.86634,29.02278,51.60666,29.02278c10.09879,0,20.19788,2.77626,26.4136,7.05191Z" transform="translate(-2.05424 -0.01008)" fill="#fff"/><path d="M140.83319,112.8956l7.59791,11.69256c-8.621,7.01571-17.67949,10.37416-28.19846,10.37416-21.48453,0-35.36788-15.19611-35.36788-38.72632,0-13.44,2.78189-22.35663,9.35695-29.662,6.13767-6.865,13.5881-10.0801,23.53022-10.0801,8.624,0,16.80145,2.92106,21.6234,7.89226,6.87091,7.01572,9.93084,17.094,9.93084,32.73081v4.52639H106.05641v.58516c0,11.54508,5.69731,18.11718,15.78453,18.11718C128.55784,120.34574,134.85486,117.86533,140.83319,112.8956ZM106.34928,87.32237h22.64625v-.87508c0-5.54657-.58249-8.47327-2.33264-11.24775-1.90118-2.92106-4.67417-4.386-8.627-4.386-7.4531,0-11.68663,5.84777-11.68663,16.2249Z" transform="translate(-2.05424 -0.01008)" fill="#fff"/><path d="M176.221,57.18949l1.86349,8.2169a66.79211,66.79211,0,0,1,8.61809-5.55073,30.80015,30.80015,0,0,1,13.44567-3.21513c8.3341,0,15.63082,4.38278,17.96642,10.81452,1.02582,2.77329,1.46617,5.9896,1.46617,10.66971v54.64113H200.293V84.11169c0-8.47625-1.46023-10.95962-6.578-10.95962-3.94391,0-9.05844,2.62967-13.58484,6.72432v52.8895H160.54383V57.18949Z" transform="translate(-2.05424 -0.01008)" fill="#fff"/><path d="M178.099,57.18949l-.01454,8.2169a66.79211,66.79211,0,0,1,8.61809-5.55073,30.80015,30.80015,0,0,1,13.44567-3.21513c8.3341,0,15.63082,4.38278,17.96642,10.81452,1.02582,2.77329,1.46617,5.9896,1.46617,10.66971v54.64113H200.293V84.11169c0-8.47625-1.46023-10.95962-6.578-10.95962-3.94391,0-9.05844,2.62967-13.58484,6.72432v52.8895H160.54383V57.18949Z" transform="translate(-2.05424 -0.01008)" fill="#fff"/><path d="M280.64062,76.07164c-7.462-3.79316-12.86051-5.4-18.41272-5.4-5.70859,0-9.49909,2.91958-9.49909,7.30236,0,3.79613,2.48367,5.84776,9.35132,7.60384l9.0614,2.3356c9.20354,2.33294,12.26644,5.11186,14.892,8.47328a19.74671,19.74671,0,0,1,4.09168,12.71273c0,15.48869-12.8519,26.00766-31.99192,26.00766-8.96586,0-18.77771-2.776-29.41567-8.192l6.17833-14.74715c5.99553,3.65133,16.3697,8.47327,24.83705,8.47327,5.56082,0,9.948-3.65132,9.948-8.47327,0-5.1175-3.657-7.74568-11.54775-9.20325l-8.76289-1.61127c-4.97565-.881-11.1074-4.38723-13.74152-7.60087-2.63115-3.21364-4.23649-8.61512-4.23649-13.44,0-14.61214,11.55072-24.40084,28.92873-24.40084,11.313,0,18.97207,3.25133,25.57027,6.43885Z" transform="translate(-2.05424 -0.01008)" fill="#fff"/><path d="M342.21617,132.757l-.04659-8.20948a66.94977,66.94977,0,0,1-8.61215,5.54657,30.87852,30.87852,0,0,1-13.44864,3.21632c-8.33707,0-15.63943-4.3813-17.978-10.81749-1.02018-2.76735-1.45193-5.98663-1.45193-10.66081V57.1794H319.961v48.65717c0,8.48188,1.45756,10.96526,6.58366,10.96526,3.93827,0,9.0528-2.63709,13.58781-6.72581V57.1794H359.7102V132.757Z" transform="translate(-2.05424 -0.01008)" fill="#fff"/><path d="M122.6899,7.85012V27.53347c0,10.86822-5.25073,16.77533-14.92074,16.77533-9.66437,0-14.62816-6.19258-14.62816-16.90293V7.85012H88.69v-5.135h15.0424v5.135H99.29292V28.0029c0,7.13589,2.92106,10.94627,8.5979,10.94627,5.84777,0,8.71364-3.71335,8.71364-10.5436V7.85012h-4.45964v-5.135h15.00769v5.135H122.6899" transform="translate(-2.05424 -0.01008)" fill="#fff"/><path d="M146.48956,43.66845V38.80881h3.56438V24.8311c0-5.86082-1.87507-7.53144-5.02194-7.53144-2.93264,0-4.938,1.52017-6.67091,3.776v17.7332h3.605v4.85964H128.76675V38.80881h3.55548V17.81716h-3.55548V12.9516h9.59434v3.15873a10.07148,10.07148,0,0,1,8.17209-3.80057c6.17209,0,9.551,3.42965,9.551,12.10116V38.80881H159.718v4.85964H146.48956" transform="translate(-2.05424 -0.01008)" fill="#fff"/><path d="M169.36192,7.8065a3.91956,3.91956,0,0,1-3.93531-3.8626,3.89628,3.89628,0,1,1,3.93531,3.8626m-6.20118,35.862V38.80881h3.7902V17.81716h-3.7902V12.9516h9.835V38.80881h3.78753v4.85964Z" transform="translate(-2.05424 -0.01008)" fill="#fff"/><path d="M195.62181,42.91771" transform="translate(-2.05424 -0.01008)" fill="#fff"/><path d="M195.62181,42.91771a11.64818,11.64818,0,0,1-5.68248,1.39109c-4.03679,0-6.59554-2.64-6.59554-8.14152V17.81716h-4.16112V12.9516h4.16112V4.17267l6.01868-3.173V12.9516h6.90859v4.86556h-6.90859V35.60081c0,2.86735.75935,3.68308,2.86023,3.68308a6.92374,6.92374,0,0,0,1.8546-.26795Z" transform="translate(-2.05424 -0.01008)" fill="#fff"/><path d="M224.11878,30.44H205.15c.4549,5.56794,2.7819,8.71808,7.60385,8.71808,3.45993,0,5.497-.92463,8.23826-2.99079l2.57922,4.11779a16.46556,16.46556,0,0,1-11.17416,4.02373c-7.54272,0-13.16169-5.79138-13.16169-15.96407,0-10.42341,5.2074-16.035,12.765-16.035,8.31067,0,12.28069,7.08811,12.28069,15.39463,0,1.10266-.12463,2.08782-.16231,2.7356m-12.475-13.14033c-3.98724,0-6.03886,2.90652-6.459,8.34h13.06614c-.33916-4.56409-1.93-8.34-6.6071-8.34" transform="translate(-2.05424 -0.01008)" fill="#fff"/><path d="M247.55938,43.66845v-3.2267c-2.09228,2.476-4.32937,3.867-7.6157,3.867-6.55192,0-11.22877-4.79732-11.22877-16.48572,0-10.52342,5.14064-15.51332,10.94211-15.51332a10.19565,10.19565,0,0,1,7.90236,3.6267V5.1436h-3.64569V.30859h9.62372V38.80881h3.25726v4.85964h-9.23529m.06084-22.351c-1.29555-1.824-3.86291-4.01779-6.73471-4.01779-4.03649,0-6.16052,3.49791-6.16052,10.32639,0,8.54123,2.39346,11.72459,6.4534,11.72459,2.4629,0,4.10028-1.178,6.44183-3.92936Z" transform="translate(-2.05424 -0.01008)" fill="#fff"/><path d="M290.13081,44.3088a11.09359,11.09359,0,0,1-8.89613-3.96854v3.32819h-5.27417V31.14414h4.9902c1.4546,5.02314,4.02788,7.91809,9.067,7.91809,4.486,0,6.90858-2.16617,6.90858-6.1534,0-3.58012-1.11869-5.37536-8.56318-7.49376C280.229,23.13882,276.259,20.50173,276.259,13.18483c0-6.91987,4.7264-11.12906,11.7071-11.12906,4.67714,0,7.30562,1.88813,8.5979,3.98753V2.71512h5.26824v12.5157h-4.97833c-.75638-4.80474-3.45133-7.90829-8.49078-7.90829-4.332,0-5.90266,2.22995-5.90266,5.44212,0,3.392,2.22551,5.28426,8.2617,6.962,8.189,2.35014,12.41689,5.17417,12.41689,12.48662,0,8.07179-5.34925,12.09552-13.00828,12.09552" transform="translate(-2.05424 -0.01008)" fill="#fff"/><path d="M344.81527,43.66845V40.34026a10.208,10.208,0,0,1-8.29908,3.96854c-5.29733,0-9.83531-2.69495-9.83531-10.2249,0-6.8534,4.8451-10.0801,11.34776-10.0801a14.28762,14.28762,0,0,1,6.78663,1.47062V22.60707c0-3.33976-1.9908-5.2-5.56379-5.2a14.244,14.244,0,0,0-7.60384,1.92255l-2.21365-4.2712a18.13526,18.13526,0,0,1,10.18277-2.74866c6.48248,0,11.05517,3.32225,11.05517,10.29731V38.80881h3.33828v4.85964h-9.19494m0-13.51244a13.63706,13.63706,0,0,0-6.78663-1.349c-3.32374,0-5.62462,1.88932-5.62462,5.103,0,3.74243,1.71275,5.37388,5.216,5.37388a9.17017,9.17017,0,0,0,7.19523-3.86261Z" transform="translate(-2.05424 -0.01008)" fill="#fff"/><path d="M400.50537,30.44H381.53063c.481,5.56794,2.82523,8.71808,7.60087,8.71808,3.47744,0,5.50593-.92463,8.26467-2.99079l2.5905,4.11779a16.56491,16.56491,0,0,1-11.197,4.02373c-7.53737,0-13.162-5.79138-13.162-15.96407,0-10.42341,5.21038-16.035,12.75042-16.035,8.32254,0,12.29821,7.08811,12.29821,15.39463,0,1.10266-.12463,2.08782-.17093,2.7356M388.03922,17.29966c-3.9905,0-6.02757,2.90652-6.43916,8.34h13.03737c-.3187-4.56409-1.93591-8.34-6.59821-8.34" transform="translate(-2.05424 -0.01008)" fill="#fff"/><path d="M417.52136,44.11741c-3.56142,0-5.3436-1.03145-6.96052-2.91068v2.46172h-4.69732V34.0839h4.16111c1.86054,3.50919,3.74688,5.26674,7.25607,5.26674,2.52136,0,3.8629-1.46912,3.8629-3.58456,0-2.26616-.98812-3.5528-5.31749-4.78425-7.48782-2.17478-10.02046-4.41186-10.02046-9.95844,0-4.45251,3.22522-8.54835,9.3715-8.54835,2.74124,0,4.79288.65638,6.44182,2.34124V12.9516h4.67685v9.60621h-4.16973c-1.37358-3.51365-3.26882-5.39435-6.60709-5.39435-2.5558,0-3.741,1.33471-3.741,3.40058,0,1.85905.70683,3.208,5.32314,4.62077,7.20384,2.22106,10.00324,4.31749,10.00324,10.132,0,4.85252-3.68011,8.80058-9.58306,8.80058" transform="translate(-2.05424 -0.01008)" fill="#fff"/><path d="M341.68857,174.38124v-1.54451a8.2776,8.2776,0,0,1-5.83619,2.1181c-3.11513,0-5.80118-1.46914-6.53144-3.5902a13.1698,13.1698,0,0,1-.481-4.41335V152.75487h5.70859v13.159c0,1.98783.13324,3.02819.481,3.63383a2.325,2.325,0,0,0,2.03411,1.03738,4.28408,4.28408,0,0,0,3.5905-2.12433v-15.7059h5.54064v21.62637Z" transform="translate(-2.05424 -0.01008)" fill="#fff"/><path d="M420.92906,76.07164c-7.4617-3.79316-12.86614-5.4-18.42132-5.4-5.70563,0-9.50177,2.91958-9.50177,7.30236,0,3.79613,2.48636,5.84776,9.357,7.60384l9.06437,2.3356c9.20058,2.33294,12.26941,5.11186,14.89463,8.47328a19.792,19.792,0,0,1,4.08605,12.71273c0,15.48869-12.84894,26.00766-31.99193,26.00766-8.97149,0-18.7777-2.776-29.41567-8.192l6.181-14.74715c5.99583,3.65133,16.36406,8.47327,24.84,8.47327,5.55518,0,9.94241-3.65132,9.94241-8.47327,0-5.1175-3.657-7.74568-11.54775-9.20325l-8.76882-1.61127c-4.96379-.881-11.09848-4.38723-13.73558-7.60087-2.62819-3.21364-4.23649-8.61512-4.23649-13.44,0-14.61214,11.54775-24.40084,28.93466-24.40084,11.3071,0,18.96613,3.25133,25.5587,6.43885Z" transform="translate(-2.05424 -0.01008)" fill="#fff"/><path d="M13.33552,154.308H279.69018a10.04242,10.04242,0,1,1,0,20.08483H13.33552a10.04242,10.04242,0,1,1,0-20.08483Z" transform="translate(-2.05424 -0.01008)" fill="#fff"/><path d="M322.95152,42.91771a11.64383,11.64383,0,0,1-5.68545,1.39109c-4.02819,0-6.58959-2.64-6.58959-8.14152V17.81716h-4.1644V12.9516h4.1644V4.17267l6.0157-3.173V12.9516h6.9083v4.86556h-6.9083V35.60081c0,2.86735.75638,3.68308,2.86587,3.68308a6.86058,6.86058,0,0,0,1.846-.26795Z" transform="translate(-2.05424 -0.01008)" fill="#fff"/><path d="M371.94756,42.91771a11.63625,11.63625,0,0,1-5.67981,1.39109c-4.03648,0-6.59227-2.64-6.59227-8.14152V17.81716h-4.16439V12.9516h4.16439V4.17267l6.01572-3.173V12.9516h6.90532v4.86556H365.6912V35.60081c0,2.86735.75934,3.68308,2.86022,3.68308a6.90992,6.90992,0,0,0,1.8546-.26795Z" transform="translate(-2.05424 -0.01008)" fill="#fff"/><path d="M440.992,5.97887a9.01824,9.01824,0,0,1,4.3388,1.13722,8.33147,8.33147,0,0,1,3.32076,3.26218,8.89465,8.89465,0,0,1,1.216,4.49231,8.58932,8.58932,0,0,1-2.59358,6.282,8.87533,8.87533,0,0,1-12.572,0,8.56538,8.56538,0,0,1-2.60167-6.282,8.81161,8.81161,0,0,1,1.212-4.48625,8.50755,8.50755,0,0,1,3.29652-3.25006A8.92413,8.92413,0,0,1,440.992,5.97887Zm0,1.47253a7.4983,7.4983,0,0,0-3.61566.94936,7.01059,7.01059,0,0,0-2.77942,2.71882,7.3744,7.3744,0,0,0-1.02612,3.751,7.14257,7.14257,0,0,0,2.17344,5.24171,7.40261,7.40261,0,0,0,10.48745,0,7.16648,7.16648,0,0,0,2.16536-5.24171,7.14818,7.14818,0,0,0-2.17748-5.24978A7.14888,7.14888,0,0,0,440.992,7.4514ZM437.09355,19.781v-9.5502h3.2844a9.90269,9.90269,0,0,1,2.20171.18785,2.43522,2.43522,0,0,1,1.32911.86049,2.33782,2.33782,0,0,1,.55346,1.5412,2.57872,2.57872,0,0,1-.73929,1.80783,2.92054,2.92054,0,0,1-1.99164.89079q.88471.24541,2.226,2.40169l1.16752,1.86035h-1.88661l-.84837-1.50686a8.91747,8.91747,0,0,0-1.4705-2.12092,2.07276,2.07276,0,0,0-1.37759-.42419h-.90493v4.052Zm1.54322-5.371h1.86641c1.54322,0,2.3108-.48478,2.3108-1.45838a1.17336,1.17336,0,0,0-.54942-1.10288,3.974,3.974,0,0,0-1.87853-.32319h-1.74926Z" transform="translate(-2.05424 -0.01008)" fill="#fff"/></svg>